<svg width="41" height="40" viewBox="0 0 41 40" fill="none" xmlns="http://www.w3.org/2000/svg">
<path d="M35.1 38.3L20.05 23.25L14.2 29.1C14.5667 29.6667 14.7917 30.2167 14.875 30.75C14.9583 31.2833 15 31.8667 15 32.5C15 34.6333 14.2833 36.4167 12.85 37.85C11.4167 39.2833 9.63333 40 7.5 40C5.36667 40 3.58333 39.2833 2.15 37.85C0.716667 36.4167 0 34.6333 0 32.5C0 30.3667 0.716667 28.5833 2.15 27.15C3.58333 25.7167 5.36667 25 7.5 25C8.1 25 8.69167 25.0833 9.275 25.25C9.85833 25.4167 10.4667 25.6667 11.1 26L16.9 20.2L11 14.3C10.4333 14.5667 9.85833 14.75 9.275 14.85C8.69167 14.95 8.1 15 7.5 15C5.36667 15 3.58333 14.2833 2.15 12.85C0.716667 11.4167 0 9.63333 0 7.5C0 5.36667 0.716667 3.58333 2.15 2.15C3.58333 0.716667 5.36667 0 7.5 0C9.63333 0 11.4167 0.716667 12.85 2.15C14.2833 3.58333 15 5.36667 15 7.5C15 8.13333 14.9583 8.73333 14.875 9.3C14.7917 9.86667 14.6167 10.4 14.35 10.9L40.05 36.6V38.3H35.1ZM25.95 17.65L22.65 14.35L35.1 1.9H40.05V3.55L25.95 17.65ZM7.5 12C8.76667 12 9.83333 11.5667 10.7 10.7C11.5667 9.83333 12 8.76667 12 7.5C12 6.23333 11.5667 5.16667 10.7 4.3C9.83333 3.43333 8.76667 3 7.5 3C6.23333 3 5.16667 3.43333 4.3 4.3C3.43333 5.16667 3 6.23333 3 7.5C3 8.76667 3.43333 9.83333 4.3 10.7C5.16667 11.5667 6.23333 12 7.5 12ZM20.15 21.15C20.4167 21.15 20.6417 21.0583 20.825 20.875C21.0083 20.6917 21.1 20.4667 21.1 20.2C21.1 19.9333 21.0083 19.7083 20.825 19.525C20.6417 19.3417 20.4167 19.25 20.15 19.25C19.8833 19.25 19.6583 19.3417 19.475 19.525C19.2917 19.7083 19.2 19.9333 19.2 20.2C19.2 20.4667 19.2917 20.6917 19.475 20.875C19.6583 21.0583 19.8833 21.15 20.15 21.15ZM7.5 37C8.76667 37 9.83333 36.5667 10.7 35.7C11.5667 34.8333 12 33.7667 12 32.5C12 31.2333 11.5667 30.1667 10.7 29.3C9.83333 28.4333 8.76667 28 7.5 28C6.23333 28 5.16667 28.4333 4.3 29.3C3.43333 30.1667 3 31.2333 3 32.5C3 33.7667 3.43333 34.8333 4.3 35.7C5.16667 36.5667 6.23333 37 7.5 37Z" fill="#11472D"/>
</svg>
