<svg width="38" height="40" viewBox="0 0 38 40" fill="none" xmlns="http://www.w3.org/2000/svg">
<path d="M30.7 40L28.6 37.9L32.3 34.2H19.2V31.2H32.3L28.6 27.5L30.7 25.4L38 32.7L30.7 40ZM36 22.4H33V7H30V11.5H6V7H3V37H16.2V40H3C2.13333 40 1.41667 39.7167 0.85 39.15C0.283333 38.5833 0 37.8667 0 37V7C0 6.13333 0.283333 5.41667 0.85 4.85C1.41667 4.28333 2.13333 4 3 4H13.1C13.3333 2.83333 13.9083 1.875 14.825 1.125C15.7417 0.375 16.8 0 18 0C19.2 0 20.2583 0.375 21.175 1.125C22.0917 1.875 22.6667 2.83333 22.9 4H33C33.8667 4 34.5833 4.28333 35.15 4.85C35.7167 5.41667 36 6.13333 36 7V22.4ZM18 7C18.5667 7 19.0417 6.80833 19.425 6.425C19.8083 6.04167 20 5.56667 20 5C20 4.43333 19.8083 3.95833 19.425 3.575C19.0417 3.19167 18.5667 3 18 3C17.4333 3 16.9583 3.19167 16.575 3.575C16.1917 3.95833 16 4.43333 16 5C16 5.56667 16.1917 6.04167 16.575 6.425C16.9583 6.80833 17.4333 7 18 7Z" fill="#11472D"/>
</svg>
